<mxfile host="app.diagrams.net" modified="2022-08-04T22:18:55.082Z" agent="5.0 (X11)" etag="Afko1sXuMsLbBinAldcN" version="20.2.3" type="github">
  <diagram name="Page-1" id="16e2658f-23c8-b752-8be9-c03fbebb8bbe">
    <mxGraphModel dx="2942" dy="1086" grid="1" gridSize="10" guides="1" tooltips="1" connect="1" arrows="1" fold="1" page="1" pageScale="1" pageWidth="1600" pageHeight="900" background="none" math="0" shadow="0">
      <root>
        <mxCell id="0" />
        <mxCell id="1" parent="0" />
        <mxCell id="tk3jWDGdzixleCatkMts-246" value="SPI/ CAN Hat" style="text;html=1;strokeColor=none;fillColor=none;spacing=5;spacingTop=-20;whiteSpace=wrap;overflow=hidden;rounded=0;glass=0;labelBorderColor=none;sketch=0;fontSize=48;fontColor=none;opacity=50;align=center;" parent="1" vertex="1">
          <mxGeometry x="110" y="40" width="1360" height="40" as="geometry" />
        </mxCell>
        <mxCell id="tk3jWDGdzixleCatkMts-247" value="&lt;font color=&quot;#FF1414&quot;&gt;- - - - &lt;/font&gt;Optional Routing via Bed Fuse" style="text;html=1;strokeColor=#ae4132;fillColor=#fad9d5;align=center;verticalAlign=middle;whiteSpace=wrap;rounded=0;glass=0;labelBorderColor=none;sketch=0;fontSize=26;opacity=50;fontStyle=0" parent="1" vertex="1">
          <mxGeometry x="960" y="80" width="440" height="60" as="geometry" />
        </mxCell>
        <mxCell id="tk3jWDGdzixleCatkMts-248" value="It is recommended to fuse your 24v line for extra safety" style="text;html=1;strokeColor=#b46504;fillColor=#fad7ac;align=center;verticalAlign=middle;whiteSpace=wrap;rounded=0;glass=0;labelBorderColor=none;sketch=0;fontSize=26;opacity=50;" parent="1" vertex="1">
          <mxGeometry x="320" y="80" width="640" height="60" as="geometry" />
        </mxCell>
        <mxCell id="tk3jWDGdzixleCatkMts-249" style="edgeStyle=elbowEdgeStyle;rounded=0;orthogonalLoop=1;jettySize=auto;html=1;labelBackgroundColor=default;fontSize=16;fontColor=none;startArrow=none;startFill=0;endArrow=none;endFill=0;strokeColor=#b85450;strokeWidth=5;dashed=1;fillColor=#f8cecc;" parent="1" source="tk3jWDGdzixleCatkMts-250" edge="1">
          <mxGeometry relative="1" as="geometry">
            <mxPoint x="600" y="320" as="targetPoint" />
          </mxGeometry>
        </mxCell>
        <mxCell id="tk3jWDGdzixleCatkMts-250" value="FUSE" style="rounded=0;whiteSpace=wrap;html=1;glass=0;labelBorderColor=none;sketch=0;fontSize=16;strokeColor=#d79b00;strokeWidth=3;fillColor=#ffe6cc;opacity=50;fontStyle=1" parent="1" vertex="1">
          <mxGeometry x="620" y="300" width="120" height="40" as="geometry" />
        </mxCell>
        <mxCell id="tk3jWDGdzixleCatkMts-251" value="" style="endArrow=none;html=1;rounded=0;labelBackgroundColor=none;fontSize=16;fontColor=none;strokeColor=#b85450;strokeWidth=5;fillColor=#f8cecc;startArrow=classic;startFill=1;exitX=0;exitY=0.75;exitDx=0;exitDy=0;" parent="1" source="tk3jWDGdzixleCatkMts-253" target="tk3jWDGdzixleCatkMts-250" edge="1">
          <mxGeometry y="-10" width="50" height="50" relative="1" as="geometry">
            <mxPoint x="1570" y="320" as="sourcePoint" />
            <mxPoint x="490" y="320" as="targetPoint" />
            <Array as="points" />
            <mxPoint as="offset" />
          </mxGeometry>
        </mxCell>
        <mxCell id="tk3jWDGdzixleCatkMts-252" value="CAN L" style="edgeStyle=elbowEdgeStyle;rounded=0;orthogonalLoop=1;jettySize=auto;html=1;labelBackgroundColor=default;fontSize=16;fontColor=none;startArrow=classic;startFill=1;endArrow=classic;endFill=1;strokeColor=#001DBC;strokeWidth=5;fillColor=#0050ef;fontStyle=1;entryX=1;entryY=0.5;entryDx=0;entryDy=0;" parent="1" source="tk3jWDGdzixleCatkMts-253" target="tk3jWDGdzixleCatkMts-276" edge="1">
          <mxGeometry x="-0.52" y="30" relative="1" as="geometry">
            <mxPoint x="1770" y="610" as="targetPoint" />
            <Array as="points">
              <mxPoint x="1770" y="490" />
            </Array>
            <mxPoint as="offset" />
          </mxGeometry>
        </mxCell>
        <mxCell id="tk3jWDGdzixleCatkMts-253" value="CAN Toolhead" style="whiteSpace=wrap;html=1;aspect=fixed;rounded=0;glass=0;labelBorderColor=none;sketch=0;fontSize=16;fontColor=none;strokeColor=default;strokeWidth=3;fillColor=none;opacity=50;fontStyle=1" parent="1" vertex="1">
          <mxGeometry x="1650" y="200" width="160" height="160" as="geometry" />
        </mxCell>
        <mxCell id="tk3jWDGdzixleCatkMts-254" value="24V PSU" style="shape=step;perimeter=stepPerimeter;whiteSpace=wrap;html=1;fixedSize=1;rounded=0;glass=0;labelBorderColor=none;sketch=0;fontSize=16;fontColor=none;strokeColor=default;strokeWidth=3;fillColor=none;opacity=50;fontStyle=1" parent="1" vertex="1">
          <mxGeometry x="80" y="200" width="210" height="160" as="geometry" />
        </mxCell>
        <mxCell id="tk3jWDGdzixleCatkMts-256" value="PRINTER CONTROLLER" style="rounded=0;whiteSpace=wrap;html=1;glass=0;labelBorderColor=none;sketch=0;fontSize=16;fontColor=none;strokeColor=default;strokeWidth=3;fillColor=none;opacity=50;fontStyle=1" parent="1" vertex="1">
          <mxGeometry x="520" y="460" width="320" height="240" as="geometry" />
        </mxCell>
        <mxCell id="tk3jWDGdzixleCatkMts-257" style="edgeStyle=elbowEdgeStyle;rounded=0;orthogonalLoop=1;jettySize=auto;html=1;entryX=0.75;entryY=0;entryDx=0;entryDy=0;dashed=1;labelBackgroundColor=none;fontSize=16;fontColor=none;startArrow=none;startFill=0;endArrow=none;endFill=0;strokeColor=#b85450;strokeWidth=5;fillColor=#f8cecc;" parent="1" target="tk3jWDGdzixleCatkMts-256" edge="1">
          <mxGeometry relative="1" as="geometry">
            <mxPoint x="740" y="490" as="sourcePoint" />
            <Array as="points">
              <mxPoint x="760" y="480" />
            </Array>
          </mxGeometry>
        </mxCell>
        <mxCell id="tk3jWDGdzixleCatkMts-258" value="FUSE" style="rounded=0;whiteSpace=wrap;html=1;glass=0;labelBorderColor=none;sketch=0;fontSize=16;strokeColor=#d79b00;strokeWidth=3;fillColor=#ffe6cc;opacity=50;fontStyle=1" parent="1" vertex="1">
          <mxGeometry x="620" y="470" width="120" height="40" as="geometry" />
        </mxCell>
        <mxCell id="tk3jWDGdzixleCatkMts-259" value="BED IN" style="endArrow=classicThin;dashed=1;html=1;rounded=0;labelBackgroundColor=none;fontSize=16;fontColor=none;strokeColor=#b85450;strokeWidth=5;fillColor=#f8cecc;endFill=1;fontStyle=1" parent="1" edge="1">
          <mxGeometry x="0.8462" y="-40" width="50" height="50" relative="1" as="geometry">
            <mxPoint x="600" y="320" as="sourcePoint" />
            <mxPoint x="600" y="450" as="targetPoint" />
            <mxPoint as="offset" />
          </mxGeometry>
        </mxCell>
        <mxCell id="tk3jWDGdzixleCatkMts-260" value="BED OUT" style="endArrow=classic;dashed=1;html=1;rounded=0;labelBackgroundColor=none;fontSize=16;fontColor=none;strokeColor=#b85450;strokeWidth=5;exitX=0.75;exitY=0;exitDx=0;exitDy=0;fillColor=#f8cecc;endFill=1;fontStyle=1" parent="1" source="tk3jWDGdzixleCatkMts-256" edge="1">
          <mxGeometry x="-0.7163" y="-40" width="50" height="50" relative="1" as="geometry">
            <mxPoint x="760" y="709" as="sourcePoint" />
            <mxPoint x="760" y="319" as="targetPoint" />
            <mxPoint as="offset" />
          </mxGeometry>
        </mxCell>
        <mxCell id="tk3jWDGdzixleCatkMts-261" value="" style="endArrow=none;dashed=1;html=1;rounded=0;labelBackgroundColor=none;fontSize=16;fontColor=none;strokeColor=#b85450;strokeWidth=5;exitX=0;exitY=0.5;exitDx=0;exitDy=0;fillColor=#f8cecc;" parent="1" source="tk3jWDGdzixleCatkMts-258" edge="1">
          <mxGeometry width="50" height="50" relative="1" as="geometry">
            <mxPoint x="540" y="490" as="sourcePoint" />
            <mxPoint x="600" y="460" as="targetPoint" />
            <Array as="points">
              <mxPoint x="600" y="490" />
            </Array>
          </mxGeometry>
        </mxCell>
        <mxCell id="tk3jWDGdzixleCatkMts-264" value="CAN H" style="edgeStyle=elbowEdgeStyle;rounded=0;orthogonalLoop=1;jettySize=auto;html=1;entryX=0.25;entryY=1;entryDx=0;entryDy=0;labelBackgroundColor=default;fontSize=16;fontColor=none;startArrow=classic;startFill=1;endArrow=classic;endFill=1;strokeColor=#005700;strokeWidth=5;fillColor=#008a00;fontStyle=1;exitX=1;exitY=0.25;exitDx=0;exitDy=0;" parent="1" source="tk3jWDGdzixleCatkMts-276" target="tk3jWDGdzixleCatkMts-253" edge="1">
          <mxGeometry x="-0.1111" y="40" relative="1" as="geometry">
            <mxPoint x="1690" y="580" as="sourcePoint" />
            <Array as="points">
              <mxPoint x="1690" y="510" />
            </Array>
            <mxPoint as="offset" />
          </mxGeometry>
        </mxCell>
        <mxCell id="tk3jWDGdzixleCatkMts-269" value="V-" style="endArrow=none;html=1;rounded=0;labelBackgroundColor=none;fontSize=26;fontColor=none;strokeColor=#0A0504;strokeWidth=6;exitX=1;exitY=0.25;exitDx=0;exitDy=0;fontStyle=1" parent="1" source="tk3jWDGdzixleCatkMts-254" edge="1">
          <mxGeometry x="-0.6876" y="23" width="50" height="50" relative="1" as="geometry">
            <mxPoint x="540" y="360" as="sourcePoint" />
            <mxPoint x="1300" y="240" as="targetPoint" />
            <Array as="points" />
            <mxPoint as="offset" />
          </mxGeometry>
        </mxCell>
        <mxCell id="tk3jWDGdzixleCatkMts-270" value="" style="endArrow=none;html=1;rounded=0;labelBackgroundColor=none;fontSize=16;fontColor=none;strokeColor=#0A0504;strokeWidth=5;exitX=0;exitY=0.25;exitDx=0;exitDy=0;endFill=0;startArrow=classic;startFill=1;" parent="1" source="tk3jWDGdzixleCatkMts-253" edge="1">
          <mxGeometry width="50" height="50" relative="1" as="geometry">
            <mxPoint x="620" y="360" as="sourcePoint" />
            <mxPoint x="1290" y="240" as="targetPoint" />
            <Array as="points">
              <mxPoint x="1470" y="240" />
            </Array>
          </mxGeometry>
        </mxCell>
        <mxCell id="tk3jWDGdzixleCatkMts-272" value="PI" style="rounded=0;whiteSpace=wrap;html=1;glass=0;labelBorderColor=none;sketch=0;fontSize=16;fontColor=none;strokeColor=default;strokeWidth=3;fillColor=none;opacity=50;fontStyle=1" parent="1" vertex="1">
          <mxGeometry x="980" y="460" width="240" height="240" as="geometry" />
        </mxCell>
        <mxCell id="tk3jWDGdzixleCatkMts-273" value="USB" style="shape=flexArrow;endArrow=classic;startArrow=classic;html=1;rounded=0;labelBackgroundColor=default;fontSize=16;fontColor=none;strokeColor=#9673a6;strokeWidth=5;entryX=1;entryY=0.5;entryDx=0;entryDy=0;fillColor=#e1d5e7;fontStyle=1;exitX=0;exitY=0.5;exitDx=0;exitDy=0;" parent="1" source="tk3jWDGdzixleCatkMts-272" target="tk3jWDGdzixleCatkMts-256" edge="1">
          <mxGeometry y="30" width="100" height="100" relative="1" as="geometry">
            <mxPoint x="950" y="580" as="sourcePoint" />
            <mxPoint x="410" y="840" as="targetPoint" />
            <mxPoint as="offset" />
          </mxGeometry>
        </mxCell>
        <mxCell id="tk3jWDGdzixleCatkMts-274" value="V+" style="endArrow=none;html=1;rounded=0;labelBackgroundColor=default;fontSize=26;fontColor=none;strokeColor=#b85450;strokeWidth=5;fillColor=#f8cecc;entryX=1;entryY=0.75;entryDx=0;entryDy=0;endFill=0;startArrow=classic;startFill=1;fontStyle=1" parent="1" edge="1">
          <mxGeometry x="0.0029" y="-20" width="50" height="50" relative="1" as="geometry">
            <mxPoint x="600" y="320" as="sourcePoint" />
            <mxPoint x="280.8695652173915" y="319.52173913043475" as="targetPoint" />
            <mxPoint as="offset" />
          </mxGeometry>
        </mxCell>
        <mxCell id="tk3jWDGdzixleCatkMts-275" value="SPI" style="shape=flexArrow;endArrow=classic;startArrow=classic;html=1;rounded=0;labelBackgroundColor=default;fontSize=16;fontColor=none;strokeColor=#d79b00;strokeWidth=5;exitX=1;exitY=0.5;exitDx=0;exitDy=0;fillColor=#ffe6cc;entryX=0;entryY=0.5;entryDx=0;entryDy=0;fontStyle=1" parent="1" source="tk3jWDGdzixleCatkMts-272" target="tk3jWDGdzixleCatkMts-276" edge="1">
          <mxGeometry x="0.2057" y="25" width="100" height="100" relative="1" as="geometry">
            <mxPoint x="490" y="910" as="sourcePoint" />
            <mxPoint x="1130" y="1110" as="targetPoint" />
            <Array as="points">
              <mxPoint x="1300" y="580" />
            </Array>
            <mxPoint as="offset" />
          </mxGeometry>
        </mxCell>
        <mxCell id="tk3jWDGdzixleCatkMts-276" value="CAN HAT" style="rounded=0;whiteSpace=wrap;html=1;glass=0;labelBorderColor=none;sketch=0;fontSize=16;fontColor=none;strokeColor=default;strokeWidth=3;fillColor=none;opacity=50;fontStyle=1" parent="1" vertex="1">
          <mxGeometry x="1370" y="460" width="120" height="240" as="geometry" />
        </mxCell>
        <mxCell id="ZNV6UqoiLmICLYx3hVOW-3" value="&lt;div style=&quot;font-size: 12px;&quot;&gt;&lt;font style=&quot;font-size: 12px;&quot; color=&quot;#1A0101&quot;&gt;The Microfit / Molex pins on EBB boards are reversed to those found on SHT/Huvud boards!!!&lt;/font&gt;&lt;/div&gt;" style="text;html=1;strokeColor=#b85450;fillColor=#f8cecc;spacing=5;spacingTop=-20;whiteSpace=wrap;overflow=hidden;rounded=0;fontSize=12;align=center;verticalAlign=bottom;strokeWidth=5;labelPosition=center;verticalLabelPosition=middle;" vertex="1" parent="1">
          <mxGeometry x="1610" y="110" width="250" height="70" as="geometry" />
        </mxCell>
      </root>
    </mxGraphModel>
  </diagram>
</mxfile>
